<?xml version="1.0" encoding="UTF-8"?>
<svg xmlns="http://www.w3.org/2000/svg" xmlns:xlink="http://www.w3.org/1999/xlink" viewBox="0 0 24 24" width="24px" height="24px">
<g id="surface38360187">
<path style=" stroke:none;fill-rule:nonzero;fill:rgb(60.784316%,34.901962%,71.372551%);fill-opacity:1;" d="M 21.074219 21.976562 C 19.628906 21.351562 17.84375 20.765625 15.773438 20.421875 C 15.203125 20.328125 14.800781 19.785156 14.898438 19.214844 C 14.957031 18.878906 14.988281 18.523438 14.988281 18.152344 C 14.988281 15.800781 13.730469 13.894531 12.1875 13.894531 C 10.632812 13.894531 9.375 15.800781 9.375 18.152344 C 9.375 18.503906 9.402344 18.851562 9.460938 19.179688 C 9.554688 19.753906 9.148438 20.296875 8.578125 20.386719 C 6.421875 20.726562 4.566406 21.34375 3.066406 21.988281 C 2.152344 22.121094 1.410156 21.074219 1.953125 20.234375 C 2.085938 20.035156 2.21875 19.828125 2.339844 19.617188 C 2.65625 19.109375 2.976562 18.601562 3.285156 18.074219 C 4.699219 15.746094 6.109375 13.222656 7.476562 10.507812 C 7.511719 10.441406 7.542969 10.363281 7.574219 10.296875 C 7.863281 9.734375 8.136719 9.171875 8.402344 8.609375 C 8.535156 8.347656 8.667969 8.070312 8.789062 7.804688 C 9 7.9375 9.207031 8.089844 9.449219 8.246094 C 10.554688 8.929688 11.589844 9.316406 12.339844 9.515625 C 11.789062 9.09375 11.183594 8.597656 10.566406 7.980469 C 10.101562 7.519531 9.691406 7.054688 9.339844 6.601562 C 9.859375 5.457031 10.355469 4.332031 10.796875 3.238281 C 10.871094 3.0625 10.949219 2.886719 11.015625 2.722656 C 11.402344 1.761719 12.738281 1.761719 13.136719 2.710938 C 13.320312 3.160156 13.511719 3.625 13.710938 4.089844 C 13.875 4.496094 14.0625 4.90625 14.25 5.324219 C 14.371094 5.609375 14.503906 5.90625 14.636719 6.207031 C 14.898438 6.800781 15.175781 7.398438 15.460938 8.003906 C 15.726562 8.589844 16.011719 9.171875 16.3125 9.769531 C 16.3125 9.789062 16.320312 9.800781 16.332031 9.824219 C 17.039062 11.269531 17.765625 12.644531 18.507812 13.980469 C 19.035156 14.960938 19.574219 15.910156 20.128906 16.828125 C 20.316406 17.167969 20.511719 17.5 20.722656 17.832031 C 20.867188 18.0625 21 18.292969 21.140625 18.515625 L 21.128906 18.515625 C 20.742188 18.304688 20.324219 18.105469 19.871094 17.929688 C 19.089844 17.621094 18.363281 17.433594 17.734375 17.324219 C 18.59375 17.753906 19.585938 18.316406 20.621094 19.066406 C 21.261719 19.539062 21.835938 20.003906 22.320312 20.46875 C 22.609375 21.261719 21.914062 22.121094 21.074219 21.976562 Z M 21.074219 21.976562 "/>
</g>
</svg>
