<?xml version="1.0" encoding="UTF-8" standalone="no"?>
<svg
   viewBox="0 0 24 24"
   width="24px"
   height="24px"
   version="1.1"
   id="svg5"
   sodipodi:docname="favicon.svg"
   inkscape:version="1.1.1 (3bf5ae0d25, 2021-09-20)"
   xmlns:inkscape="http://www.inkscape.org/namespaces/inkscape"
   xmlns:sodipodi="http://sodipodi.sourceforge.net/DTD/sodipodi-0.dtd"
   xmlns="http://www.w3.org/2000/svg"
   xmlns:svg="http://www.w3.org/2000/svg">
  <defs
     id="defs9" />
  <sodipodi:namedview
     id="namedview7"
     pagecolor="#505050"
     bordercolor="#eeeeee"
     borderopacity="1"
     inkscape:pageshadow="0"
     inkscape:pageopacity="0"
     inkscape:pagecheckerboard="0"
     showgrid="false"
     inkscape:zoom="24.833333"
     inkscape:cx="4.1476511"
     inkscape:cy="12"
     inkscape:window-width="1460"
     inkscape:window-height="776"
     inkscape:window-x="0"
     inkscape:window-y="26"
     inkscape:window-maximized="1"
     inkscape:current-layer="svg5" />
  <g
     id="surface76801332"
     style="fill:#a9a9e0;fill-opacity:1">
    <path
       style="stroke:none;fill-rule:nonzero;fill:#a9a9e0;fill-opacity:1"
       d="M 12 2 C 11.734375 2 11.476562 2.105469 11.289062 2.296875 L 1.203125 11.097656 C 1.074219 11.191406 1 11.339844 1 11.5 C 1 11.777344 1.222656 12 1.5 12 L 4 12 L 4 20 C 4 20.550781 4.449219 21 5 21 L 9 21 C 9.550781 21 10 20.550781 10 20 L 10 14 L 14 14 L 14 20 C 14 20.550781 14.449219 21 15 21 L 19 21 C 19.550781 21 20 20.550781 20 20 L 20 12 L 22.5 12 C 22.777344 12 23 11.777344 23 11.5 C 23 11.339844 22.925781 11.191406 22.796875 11.097656 L 12.71875 2.300781 C 12.714844 2.300781 12.714844 2.296875 12.710938 2.296875 C 12.523438 2.105469 12.265625 2 12 2 Z M 12 2 "
       id="path2" />
  </g>
</svg>
