<?xml version="1.0" encoding="UTF-8" standalone="no"?>
<svg
   viewBox="0 0 24 24"
   width="24px"
   height="24px"
   version="1.1"
   id="svg5"
   sodipodi:docname="github.svg"
   inkscape:version="1.1.1 (3bf5ae0d25, 2021-09-20)"
   xmlns:inkscape="http://www.inkscape.org/namespaces/inkscape"
   xmlns:sodipodi="http://sodipodi.sourceforge.net/DTD/sodipodi-0.dtd"
   xmlns="http://www.w3.org/2000/svg"
   xmlns:svg="http://www.w3.org/2000/svg">
  <defs
     id="defs9" />
  <sodipodi:namedview
     id="namedview7"
     pagecolor="#505050"
     bordercolor="#eeeeee"
     borderopacity="1"
     inkscape:pageshadow="0"
     inkscape:pageopacity="0"
     inkscape:pagecheckerboard="0"
     showgrid="false"
     inkscape:zoom="17.559818"
     inkscape:cx="12.01607"
     inkscape:cy="16.173288"
     inkscape:window-width="1460"
     inkscape:window-height="776"
     inkscape:window-x="0"
     inkscape:window-y="26"
     inkscape:window-maximized="1"
     inkscape:current-layer="svg5" />
  <g
     id="surface77532996"
     style="fill:#a9a9e0;fill-opacity:1;stroke:#8565da;stroke-opacity:0.31286681;stroke-width:0.85;stroke-miterlimit:4;stroke-dasharray:none">
    <path
       style="stroke:#8565da;fill-rule:nonzero;fill:#a9a9e0;fill-opacity:1;stroke-opacity:0.31286681;stroke-width:0.85;stroke-miterlimit:4;stroke-dasharray:none"
       d="M 10.898438 2.101562 C 6.300781 2.601562 2.601562 6.300781 2.101562 10.800781 C 1.601562 15.5 4.300781 19.699219 8.398438 21.300781 C 8.699219 21.398438 9 21.199219 9 20.800781 L 9 19.199219 C 9 19.199219 8.601562 19.300781 8.101562 19.300781 C 6.699219 19.300781 6.101562 18.101562 6 17.398438 C 5.898438 17 5.699219 16.699219 5.398438 16.398438 C 5.101562 16.300781 5 16.300781 5 16.199219 C 5 16 5.300781 16 5.398438 16 C 6 16 6.5 16.699219 6.699219 17 C 7.199219 17.800781 7.800781 18 8.101562 18 C 8.5 18 8.800781 17.898438 9 17.800781 C 9.101562 17.101562 9.398438 16.398438 10 16 C 7.699219 15.5 6 14.199219 6 12 C 6 10.898438 6.5 9.800781 7.199219 9 C 7.101562 8.800781 7 8.300781 7 7.601562 C 7 7.199219 7 6.601562 7.300781 6 C 7.300781 6 8.699219 6 10.101562 7.300781 C 10.601562 7.101562 11.300781 7 12 7 C 12.699219 7 13.398438 7.101562 14 7.300781 C 15.300781 6 16.800781 6 16.800781 6 C 17 6.601562 17 7.199219 17 7.601562 C 17 8.398438 16.898438 8.800781 16.800781 9 C 17.5 9.800781 18 10.800781 18 12 C 18 14.199219 16.300781 15.5 14 16 C 14.601562 16.5 15 17.398438 15 18.300781 L 15 20.898438 C 15 21.199219 15.300781 21.5 15.699219 21.398438 C 19.398438 19.898438 22 16.300781 22 12.101562 C 22 6.101562 16.898438 1.398438 10.898438 2.101562 Z M 10.898438 2.101562 "
       id="path2" />
  </g>
</svg>
