<?xml version="1.0" encoding="UTF-8"?>
<svg xmlns="http://www.w3.org/2000/svg" xmlns:xlink="http://www.w3.org/1999/xlink" viewBox="0 0 50 50" width="50px" height="50px">
<g id="surface20384951">
<path style=" stroke:none;fill-rule:nonzero;fill:rgb(60.784316%,34.901962%,71.372551%);fill-opacity:1;" d="M 27 8 C 29.730469 8 30.628906 8.535156 31.765625 9.21875 C 33.21875 10.085938 34.863281 11.070312 39 11.074219 L 39 16 C 35.71875 16 34.652344 15.332031 33.523438 14.621094 C 32.308594 13.863281 30.933594 13 28 13 C 27.671875 13 27.332031 13.039062 27 13.144531 L 27 8 M 25 33.609375 L 25 36 C 25 39.800781 24.171875 42 19.9375 42 C 14 42 14 39.6875 14 38 C 14 36.664062 14 35 20 35 C 22.363281 35 23.945312 34.433594 25 33.609375 M 27 6 C 25.398438 6 25 7 25 8 L 25 29 C 25 31.214844 23.96875 33 20 33 C 14.339844 33 12 34.464844 12 38 C 12 40.382812 12.488281 44 19.9375 44 C 26.855469 44 27 38.683594 27 36 C 27 34.972656 27 32.097656 27 29 L 27 17 C 27.003906 15.644531 27.199219 15 28 15 C 33.136719 15 31.871094 18 39 18 C 39 18 41 18 41 16.300781 C 41 13.746094 41 11.9375 41 10.96875 C 41 9.433594 40.3125 9.074219 39.039062 9.074219 C 31.925781 9.074219 33.675781 6 27 6 Z M 27 6 "/>
</g>
</svg>
