<?xml version="1.0" encoding="UTF-8"?>
<svg xmlns="http://www.w3.org/2000/svg" xmlns:xlink="http://www.w3.org/1999/xlink" viewBox="0 0 50 50" width="50px" height="50px">
<g id="surface69069740">
<path style=" stroke:none;fill-rule:nonzero;fill:rgb(60.784316%,34.901962%,71.372551%);fill-opacity:1;" d="M 7 4 C 5.355469 4 4 5.355469 4 7 L 4 43 C 4 44.644531 5.355469 46 7 46 L 43 46 C 44.644531 46 46 44.644531 46 43 L 46 7 C 46 5.355469 44.644531 4 43 4 Z M 7 6 L 43 6 C 43.554688 6 44 6.445312 44 7 L 44 43 C 44 43.554688 43.554688 44 43 44 L 7 44 C 6.445312 44 6 43.554688 6 43 L 6 7 C 6 6.445312 6.445312 6 7 6 Z M 22.5 13 C 17.265625 13 13 17.265625 13 22.5 C 13 27.734375 17.265625 32 22.5 32 C 24.757812 32 26.832031 31.203125 28.464844 29.878906 L 36.292969 37.707031 L 37.707031 36.292969 L 29.878906 28.464844 C 31.203125 26.832031 32 24.757812 32 22.5 C 32 17.265625 27.734375 13 22.5 13 Z M 22.5 15 C 26.652344 15 30 18.347656 30 22.5 C 30 26.652344 26.652344 30 22.5 30 C 18.347656 30 15 26.652344 15 22.5 C 15 18.347656 18.347656 15 22.5 15 Z M 22.5 15 "/>
</g>
</svg>
