<?xml version="1.0" encoding="UTF-8"?>
<svg xmlns="http://www.w3.org/2000/svg" xmlns:xlink="http://www.w3.org/1999/xlink" viewBox="0 0 50 50" width="50px" height="50px">
<g id="surface20549231">
<path style=" stroke:none;fill-rule:nonzero;fill:rgb(60.784316%,34.901962%,71.372551%);fill-opacity:1;" d="M 25 1.992188 C 12.265625 1.992188 1.992188 12.265625 1.992188 25 C 1.992188 37.734375 12.265625 48.011719 25 48.011719 C 37.734375 48.011719 48.011719 37.734375 48.011719 25 C 48.011719 12.265625 37.734375 1.992188 25 1.992188 Z M 25 4.007812 C 36.652344 4.007812 45.988281 13.347656 45.988281 25 C 45.988281 36.652344 36.652344 45.988281 25 45.988281 C 13.347656 45.988281 4.007812 36.652344 4.007812 25 C 4.007812 13.347656 13.347656 4.007812 25 4.007812 Z M 21.933594 14 C 16 14 11.535156 15.027344 11.316406 15.078125 L 11.316406 15.082031 C 9.714844 15.453125 8.707031 17.078125 9.078125 18.679688 C 9.449219 20.28125 11.074219 21.289062 12.675781 20.921875 L 12.683594 20.921875 L 12.6875 20.917969 C 12.574219 20.949219 12.738281 20.90625 12.859375 20.882812 C 12.980469 20.859375 13.15625 20.824219 13.386719 20.777344 C 13.847656 20.691406 14.515625 20.578125 15.34375 20.460938 C 17.007812 20.230469 19.324219 20 21.933594 20 L 21.996094 20 C 26.308594 20.007812 32.507812 20.667969 37.480469 23.589844 C 37.953125 23.867188 38.480469 24 38.996094 24 C 40.027344 24 41.03125 23.460938 41.585938 22.519531 C 42.421875 21.101562 41.9375 19.246094 40.519531 18.414062 C 34.277344 14.746094 27.007812 14.007812 22.003906 14 Z M 21.933594 16 L 22.003906 16 C 26.808594 16.007812 33.75 16.757812 39.503906 20.136719 C 39.992188 20.421875 40.148438 21.019531 39.863281 21.503906 C 39.671875 21.832031 39.339844 22 38.996094 22 C 38.828125 22 38.660156 21.957031 38.492188 21.863281 L 38.488281 21.863281 C 33.011719 18.648438 26.503906 18.007812 21.996094 18 L 21.933594 18 C 19.207031 18 16.804688 18.238281 15.070312 18.480469 C 14.207031 18.601562 13.503906 18.71875 13.015625 18.8125 C 12.769531 18.859375 12.582031 18.898438 12.445312 18.925781 C 12.320312 18.953125 12.332031 18.949219 12.230469 18.972656 C 11.675781 19.101562 11.152344 18.777344 11.023438 18.226562 C 10.898438 17.675781 11.222656 17.15625 11.769531 17.027344 C 11.921875 16.992188 16.230469 16 21.933594 16 Z M 21.992188 22.003906 C 19.484375 22.023438 17.320312 22.257812 15.742188 22.496094 C 14.164062 22.738281 13.265625 22.957031 12.976562 23.039062 C 11.546875 23.445312 10.695312 24.960938 11.105469 26.394531 C 11.511719 27.828125 13.027344 28.671875 14.460938 28.265625 L 14.464844 28.261719 L 14.46875 28.261719 C 14.496094 28.257812 14.535156 28.25 14.589844 28.234375 C 14.691406 28.210938 14.847656 28.179688 15.050781 28.140625 C 15.449219 28.058594 16.027344 27.953125 16.742188 27.84375 C 18.167969 27.628906 20.140625 27.410156 22.324219 27.390625 C 26.183594 27.355469 30.566406 27.925781 34.84375 30.585938 C 35.289062 30.867188 35.792969 31 36.28125 31 C 37.1875 31 38.078125 30.542969 38.589844 29.722656 C 39.378906 28.457031 38.984375 26.765625 37.722656 25.976562 C 32.335938 22.625 26.5625 21.964844 21.992188 22 Z M 22.011719 24 C 26.371094 23.964844 31.726562 24.597656 36.664062 27.675781 C 37.007812 27.890625 37.109375 28.316406 36.894531 28.664062 C 36.753906 28.886719 36.523438 29.003906 36.28125 29.003906 C 36.148438 29.003906 36.023438 28.96875 35.90625 28.894531 C 31.214844 25.96875 26.378906 25.355469 22.304688 25.390625 C 20.003906 25.410156 17.941406 25.640625 16.441406 25.867188 C 15.691406 25.980469 15.082031 26.09375 14.65625 26.179688 C 14.441406 26.222656 14.269531 26.257812 14.152344 26.285156 C 14.089844 26.296875 14.042969 26.308594 14.007812 26.320312 C 13.972656 26.328125 14.027344 26.308594 13.902344 26.347656 L 13.914062 26.34375 C 13.527344 26.449219 13.136719 26.234375 13.027344 25.847656 C 12.914062 25.453125 13.128906 25.074219 13.523438 24.964844 C 13.511719 24.964844 14.539062 24.703125 16.042969 24.476562 C 17.546875 24.246094 19.617188 24.019531 22.011719 24 Z M 22.5 29.003906 C 18.140625 29.003906 14.914062 30.0625 14.707031 30.132812 C 13.410156 30.5625 12.695312 31.996094 13.128906 33.292969 C 13.5625 34.59375 14.992188 35.3125 16.292969 34.871094 L 16.277344 34.878906 C 16.378906 34.84375 16.4375 34.824219 16.742188 34.742188 C 17.046875 34.660156 17.492188 34.550781 18.050781 34.441406 C 19.164062 34.222656 20.726562 34.003906 22.5 34.003906 C 26.835938 34 29.800781 35.039062 32.113281 36.582031 C 32.535156 36.863281 33.023438 37.003906 33.5 37.003906 C 34.304688 37.003906 35.101562 36.601562 35.582031 35.886719 C 36.339844 34.75 36.023438 33.183594 34.886719 32.421875 C 31.242188 29.992188 27.140625 29 22.5 29.003906 Z M 22.5 31.003906 C 26.859375 31 30.496094 31.898438 33.777344 34.085938 C 34.015625 34.246094 34.074219 34.539062 33.914062 34.777344 C 33.816406 34.929688 33.660156 35.003906 33.496094 35.003906 C 33.402344 35.003906 33.3125 34.976562 33.222656 34.917969 C 30.589844 33.160156 27.164062 32 22.5 32.003906 C 20.5625 32.003906 18.875 32.238281 17.660156 32.480469 C 17.054688 32.597656 16.566406 32.71875 16.222656 32.8125 C 15.878906 32.902344 15.582031 33 15.667969 32.972656 L 15.660156 32.976562 L 15.652344 32.976562 C 15.386719 33.066406 15.117188 32.933594 15.023438 32.660156 C 14.933594 32.386719 15.070312 32.117188 15.339844 32.027344 C 15.402344 32.007812 18.46875 31.003906 22.5 31.003906 Z M 22.5 31.003906 "/>
</g>
</svg>
