<?xml version="1.0" encoding="UTF-8" standalone="no"?>
<svg
   viewBox="0 0 64 64"
   width="64px"
   height="64px"
   version="1.1"
   id="svg26"
   sodipodi:docname="stardew2.svg"
   inkscape:version="1.1.1 (3bf5ae0d25, 2021-09-20)"
   xmlns:inkscape="http://www.inkscape.org/namespaces/inkscape"
   xmlns:sodipodi="http://sodipodi.sourceforge.net/DTD/sodipodi-0.dtd"
   xmlns="http://www.w3.org/2000/svg"
   xmlns:svg="http://www.w3.org/2000/svg">
  <defs
     id="defs30" />
  <sodipodi:namedview
     id="namedview28"
     pagecolor="#505050"
     bordercolor="#eeeeee"
     borderopacity="1"
     inkscape:pageshadow="0"
     inkscape:pageopacity="0"
     inkscape:pagecheckerboard="0"
     showgrid="false"
     inkscape:zoom="5.6568542"
     inkscape:cx="45.254834"
     inkscape:cy="30.052038"
     inkscape:window-width="1460"
     inkscape:window-height="776"
     inkscape:window-x="0"
     inkscape:window-y="26"
     inkscape:window-maximized="1"
     inkscape:current-layer="svg26">
    <sodipodi:guide
       position="0,64"
       orientation="0,64"
       id="guide2012" />
    <sodipodi:guide
       position="64,64"
       orientation="64,0"
       id="guide2014" />
    <sodipodi:guide
       position="64,0"
       orientation="0,-64"
       id="guide2016" />
    <sodipodi:guide
       position="0,0"
       orientation="-64,0"
       id="guide2018" />
  </sodipodi:namedview>
  <path
     fill="#f9dd8f"
     d="m 53.234047,50.457436 9.772,-31 h -5.228 l -9.772,31 z"
     id="path2"
     style="fill:#a9a9e0;fill-opacity:1" />
  <path
     fill="#f9dd8f"
     d="m 51.538047,39.253436 -7.199,-19.796 h -5.32 l 10.048,27.633 z"
     id="path4"
     style="fill:#a9a9e0;fill-opacity:1" />
  <path
     fill="#72caaf"
     d="m 42.631047,29.457436 c -2.625,0 -6.625,0.867 -6.625,6.067 0,5.2 3,6.933 3,6.933 0,0 -0.125,-2.75 1.225,-4.333 1.571,-1.842 3.775,-3.667 2.775,-7.667 z"
     id="path6"
     style="fill:#a9a9e0;fill-opacity:1" />
  <path
     fill="#97e0bb"
     d="m 42.631047,29.457436 c -2.625,0 -6.625,0.867 -6.625,6.067 0,5.2 3,6.933 3,6.933 0,0 -0.672,-1.709 -0.788,-2.259 -0.159,-0.752 -0.212,-1.366 -0.212,-2.116 0,-4.821 4,-7.625 4,-7.625 l 0.786,-0.571 z"
     id="path8"
     style="fill:#a9a9e0;fill-opacity:1" />
  <path
     fill="#8d6c9f"
     d="m 48.128047,47.433436 -10.049,-27.634 c -0.112,-0.307 -0.066,-0.648 0.12,-0.915 0.188,-0.268 0.494,-0.427 0.82,-0.427 h 5.32 c 0.421,0 0.796,0.263 0.939,0.658 l 7.199,19.796 -1.879,0.684 -6.959,-19.138 h -3.193 l 9.561,26.292 z"
     id="path12"
     style="fill:#8565da;fill-opacity:0.3137255" />
  <path
     fill="#8d6c9f"
     d="m 53.234047,51.457436 h -5.228 c -0.318,0 -0.618,-0.151 -0.807,-0.408 -0.188,-0.258 -0.243,-0.589 -0.147,-0.893 l 9.772,-31 c 0.132,-0.416 0.518,-0.699 0.954,-0.699 h 5.228 c 0.318,0 0.618,0.151 0.807,0.408 0.188,0.258 0.243,0.589 0.147,0.893 l -9.772,31 c -0.132,0.416 -0.518,0.699 -0.954,0.699 z m -3.865,-2 h 3.131 l 9.143,-29 h -3.131 z m -10.363,-6 c -0.173,0 -0.346,-0.045 -0.5,-0.134 -0.144,-0.083 -3.5,-2.088 -3.5,-7.8 0,-4.491 2.779,-7.066 7.625,-7.066 0.417,0 0.79,0.259 0.937,0.648 l 0.375,1 c 0.013,0.036 0.024,0.072 0.033,0.109 1.017,4.064 -0.906,6.22 -2.45,7.952 -0.182,0.203 -0.361,0.404 -0.533,0.605 -1.064,1.248 -0.988,3.615 -0.987,3.64 0.017,0.364 -0.167,0.71 -0.479,0.899 -0.161,0.098 -0.341,0.147 -0.521,0.147 z m 2.939,-12.979 c -3.278,0.201 -4.939,1.896 -4.939,5.045 0,2.246 0.601,3.748 1.215,4.696 0.195,-0.914 0.563,-1.939 1.25,-2.745 0.181,-0.212 0.37,-0.424 0.562,-0.639 1.412,-1.584 2.747,-3.081 2.017,-6.083 z"
     id="path14"
     sodipodi:nodetypes="sscccsscccscccccscsscccccccscsccccc"
     style="fill:#8565da;fill-opacity:0.3137255" />
  <path
     fill="#72caaf"
     d="m 14.006047,26.582436 c 0,0 -0.358,-5.125 -5.3669994,-5.125 -3.816,0 -7.633,4 -7.633,4 0,0 2.862,0 4.771,2 1.909,2 3.817,2 4.7709994,2 3.011,0 3.458,-2.875 3.458,-2.875 m -4,-13.75 c 0,0 0.25,0.125 2,3.768 1.93,4.018 6,3.732 6,3.732 0,0 1,-0.375 1,-2.875 0,-1.75 -1,-2.875 -1.625,-3.375 -1.589,-1.271 -3.125,-1.625 -4.75,-1.625 -1.25,0 -2.625,0.375 -2.625,0.375 z"
     id="path16"
     style="fill:#a9a9e0;fill-opacity:1" />
  <path
     fill="#97e0bb"
     d="m 19.006047,17.457436 c 0,-1.75 -1,-2.875 -1.625,-3.375 -1.589,-1.271 -3.125,-1.625 -4.75,-1.625 -1.25,0 -2.625,0.375 -2.625,0.375 l 1.625,0.75 c 0,0 4.25,1.25 6,5.75 l 0.375,1 c 0,0 0.043,-0.026 0.11,-0.066 0.255,-0.175 0.89,-0.806 0.89,-2.809 z m -15.7499994,7.375 c 0,0 0.75,-0.375 3.75,-0.375 3.9999994,0 5.9999994,2.125 5.9999994,2.125 l 0.915,0.343 c 0.062,-0.207 0.085,-0.343 0.085,-0.343 0,0 -0.358,-5.125 -5.3669994,-5.125 -3.816,0 -7.633,4 -7.633,4 0,0 0.181,0 0.482,0.032 z"
     id="path18"
     style="fill:#a9a9e0;fill-opacity:1" />
  <path
     fill="#f9dd8f"
     d="m 22.006047,24.457436 h 10 v -5 h -10 c -4.418,0 -8,3.582 -8,8 v 2 c 0,4.418 3.582,8 8,8 h 1.004 c 2.207,0 3.996,1.789 3.996,3.996 v 10e-4 c 0,2.21 -1.792,4.001 -4.001,4 l -4.668,-0.002 c -0.864,0 -1.705,-0.28 -2.396,-0.798 l -2.935,-2.197 v 6 l 1.23,0.88 c 1.018,0.728 2.239,1.12 3.491,1.12 h 5.279 c 4.971,0 9,-4.029 9,-9 v -2 c 0,-3.866 -3.134,-7 -7,-7 h -3 c -1.657,0 -3,-1.343 -3,-3 v -2 c 0,-1.657 1.343,-3 3,-3 z"
     id="path20"
     style="fill:#a9a9e0;fill-opacity:1" />
  <path
     fill="#8d6c9f"
     d="m 23.006047,51.457436 h -5.279 c -1.47,0 -2.878,-0.452 -4.072,-1.307 l -1.23,-0.88 c -0.263,-0.187 -0.419,-0.49 -0.419,-0.813 v -6 c 0,-0.379 0.214,-0.725 0.553,-0.895 0.338,-0.168 0.742,-0.134 1.047,0.094 l 2.935,2.197 c 0.516,0.386 1.153,0.604 1.797,0.604 0,0 4.669,0 4.67,0 0.801,0 1.554,-0.315 2.12,-0.882 0.566,-0.566 0.878,-1.319 0.878,-2.121 0,-1.652 -1.344,-2.997 -2.996,-2.997 h -1.004 c -4.963,0 -9,-4.037 -9,-9 v -2 c 0,-4.963 4.037,-9 9,-9 h 10 c 0.553,0 1,0.447 1,1 v 5 c 0,0.553 -0.447,1 -1,1 h -10 c -1.103,0 -2,0.897 -2,2 v 2 c 0,1.103 0.897,2 2,2 h 3 c 4.411,0 8,3.589 8,8 v 2 c 0,5.514 -4.486,10 -10,10 z m -9,-3.515 0.813,0.581 c 0.852,0.612 1.858,0.934 2.908,0.934 h 5.279 c 4.411,0 8,-3.589 8,-8 v -2 c 0,-3.309 -2.691,-6 -6,-6 h -3 c -2.206,0 -4,-1.794 -4,-4 v -2 c 0,-2.206 1.794,-4 4,-4 h 9 v -3 h -9 c -3.859,0 -7,3.141 -7,7 v 2 c 0,3.859 3.141,7 7,7 h 1.004 c 2.755,0 4.996,2.241 4.996,4.996 0,1.336 -0.521,2.592 -1.465,3.537 -0.944,0.944 -2.199,1.467 -3.534,1.467 -0.001,0 -4.67,0 -4.67,0 -1.072,0 -2.137,-0.359 -2.996,-1.002 l -1.335,-1 c 0,0 0,3.487 0,3.487 z"
     id="path22"
     style="fill:#8565da;fill-opacity:0.3137255" />
  <path
     fill="#8d6c9f"
     d="m 17.824047,21.337436 c -1.018,0 -4.788,-0.282 -6.72,-4.305 -1.3099994,-2.725 -1.7319994,-3.383 -1.8219994,-3.51 -0.197,-0.207 -0.3,-0.493 -0.271,-0.789 0.041,-0.412 0.332,-0.756 0.732,-0.866 0.061,-0.016 1.5199994,-0.41 2.8879994,-0.41 2.123,0 3.781,0.568 5.375,1.844 0.602,0.481 2,1.85 2,4.156 0,3.039 -1.373,3.708 -1.648,3.812 -0.091,0.033 -0.186,0.055 -0.281,0.061 -0.024,0.001 -0.113,0.007 -0.253,0.007 z m -6.229,-7.801 c 0.32,0.602 0.742,1.443 1.313,2.631 1.336,2.781 3.855,3.132 4.73,3.167 0.136,-0.206 0.368,-0.726 0.368,-1.877 0,-1.439 -0.874,-2.294 -1.25,-2.594 -1.231,-0.985 -2.465,-1.406 -4.125,-1.406 -0.336,0 -0.696,0.033 -1.036,0.079 z m -1.048,16.921 c -0.9839994,0 -3.2899994,0 -5.4939994,-2.31 -1.577,-1.653 -4.026,-1.69 -4.051,-1.69 -0.39799992,-0.003 -0.75999992,-0.243 -0.91499992,-0.61 -0.155,-0.367 -0.08,-0.791 0.195,-1.08 0.168,-0.176 4.16099992,-4.31 8.35699992,-4.31 4.6999994,0 6.2189994,3.961 6.3649994,6.056 0.005,0.074 0.002,0.149 -0.01,0.223 -0.2,1.286 -1.387,3.721 -4.447,3.721 z m -7.3199994,-5.633 c 1.038,0.311 2.264,0.884 3.273,1.942 1.612,1.691 3.137,1.691 4.0469994,1.691 1.873,0 2.353,-1.504 2.45,-1.924 -0.089,-0.775 -0.681,-4.076 -4.3579994,-4.076 -1.996,0 -4.065,1.309 -5.412,2.367 z"
     id="path24"
     style="fill:#8565da;fill-opacity:0.3137255" />
</svg>
