<?xml version="1.0" encoding="UTF-8" standalone="no"?>
<svg
   viewBox="0 0 30 30"
   width="30px"
   height="30px"
   version="1.1"
   id="svg5"
   sodipodi:docname="youtube.svg"
   inkscape:version="1.1.1 (3bf5ae0d25, 2021-09-20)"
   xmlns:inkscape="http://www.inkscape.org/namespaces/inkscape"
   xmlns:sodipodi="http://sodipodi.sourceforge.net/DTD/sodipodi-0.dtd"
   xmlns="http://www.w3.org/2000/svg"
   xmlns:svg="http://www.w3.org/2000/svg">
  <defs
     id="defs9" />
  <sodipodi:namedview
     id="namedview7"
     pagecolor="#505050"
     bordercolor="#eeeeee"
     borderopacity="1"
     inkscape:pageshadow="0"
     inkscape:pageopacity="0"
     inkscape:pagecheckerboard="0"
     showgrid="false"
     inkscape:zoom="19.866667"
     inkscape:cx="15"
     inkscape:cy="15"
     inkscape:window-width="1460"
     inkscape:window-height="776"
     inkscape:window-x="0"
     inkscape:window-y="26"
     inkscape:window-maximized="1"
     inkscape:current-layer="svg5" />
  <g
     id="surface77552238"
     style="fill:#a9a9e0;fill-opacity:1;stroke:#8565da;stroke-opacity:0.3137255;stroke-width:0.85;stroke-miterlimit:4;stroke-dasharray:none">
    <path
       style="stroke:#8565da;fill-rule:nonzero;fill:#a9a9e0;fill-opacity:1;stroke-opacity:0.3137255;stroke-width:0.85;stroke-miterlimit:4;stroke-dasharray:none"
       d="M 15 4 C 10.8125 4 5.378906 5.046875 5.378906 5.046875 L 5.367188 5.0625 C 3.460938 5.371094 2 7.007812 2 9 L 2 21 C 2.003906 22.96875 3.433594 24.640625 5.375 24.945312 L 5.378906 24.949219 C 5.378906 24.949219 10.8125 26 15 26 C 19.1875 26 24.621094 24.949219 24.621094 24.949219 C 26.566406 24.644531 27.996094 22.96875 28 21 L 28 9 C 27.996094 7.035156 26.566406 5.359375 24.621094 5.054688 L 24.621094 5.046875 C 24.621094 5.046875 19.1875 4 15 4 Z M 12 10.398438 L 20 15 L 12 19.601562 Z M 12 10.398438 "
       id="path2" />
  </g>
</svg>
